<svg id="visual" viewBox="0 0 900 600" width="900" height="600" xmlns="http://www.w3.org/2000/svg" xmlns:xlink="http://www.w3.org/1999/xlink" version="1.1"><rect x="0" y="0" width="900" height="600" fill="#007BFF"></rect><path d="M0 427L129 428L257 429L386 381L514 365L643 414L771 441L900 444L900 601L771 601L643 601L514 601L386 601L257 601L129 601L0 601Z" fill="#ffffff"></path><path d="M0 438L129 414L257 415L386 480L514 422L643 464L771 441L900 431L900 601L771 601L643 601L514 601L386 601L257 601L129 601L0 601Z" fill="#c1c5d2"></path><path d="M0 474L129 475L257 459L386 510L514 485L643 443L771 500L900 447L900 601L771 601L643 601L514 601L386 601L257 601L129 601L0 601Z" fill="#858fa6"></path><path d="M0 489L129 496L257 508L386 487L514 502L643 506L771 480L900 509L900 601L771 601L643 601L514 601L386 601L257 601L129 601L0 601Z" fill="#4b5c7c"></path><path d="M0 569L129 570L257 536L386 562L514 532L643 560L771 550L900 532L900 601L771 601L643 601L514 601L386 601L257 601L129 601L0 601Z" fill="#082e54"></path></svg>