<svg id="visual" viewBox="0 0 900 600" width="900" height="600" xmlns="http://www.w3.org/2000/svg" xmlns:xlink="http://www.w3.org/1999/xlink" version="1.1"><rect x="0" y="0" width="900" height="600" fill="#001220"></rect><path d="M0 424L21.5 419.8C43 415.7 86 407.3 128.8 403.3C171.7 399.3 214.3 399.7 257.2 403.2C300 406.7 343 413.3 385.8 417.3C428.7 421.3 471.3 422.7 514.2 422.5C557 422.3 600 420.7 642.8 415.7C685.7 410.7 728.3 402.3 771.2 395.3C814 388.3 857 382.7 878.5 379.8L900 377L900 601L878.5 601C857 601 814 601 771.2 601C728.3 601 685.7 601 642.8 601C600 601 557 601 514.2 601C471.3 601 428.7 601 385.8 601C343 601 300 601 257.2 601C214.3 601 171.7 601 128.8 601C86 601 43 601 21.5 601L0 601Z" fill="#0c6cb2"></path><path d="M0 461L21.5 463.3C43 465.7 86 470.3 128.8 461.7C171.7 453 214.3 431 257.2 417.8C300 404.7 343 400.3 385.8 398.3C428.7 396.3 471.3 396.7 514.2 403.8C557 411 600 425 642.8 428C685.7 431 728.3 423 771.2 422.5C814 422 857 429 878.5 432.5L900 436L900 601L878.5 601C857 601 814 601 771.2 601C728.3 601 685.7 601 642.8 601C600 601 557 601 514.2 601C471.3 601 428.7 601 385.8 601C343 601 300 601 257.2 601C214.3 601 171.7 601 128.8 601C86 601 43 601 21.5 601L0 601Z" fill="#658ec6"></path><path d="M0 440L21.5 440.2C43 440.3 86 440.7 128.8 447.3C171.7 454 214.3 467 257.2 467C300 467 343 454 385.8 448.2C428.7 442.3 471.3 443.7 514.2 449.3C557 455 600 465 642.8 464.3C685.7 463.7 728.3 452.3 771.2 454.3C814 456.3 857 471.7 878.5 479.3L900 487L900 601L878.5 601C857 601 814 601 771.2 601C728.3 601 685.7 601 642.8 601C600 601 557 601 514.2 601C471.3 601 428.7 601 385.8 601C343 601 300 601 257.2 601C214.3 601 171.7 601 128.8 601C86 601 43 601 21.5 601L0 601Z" fill="#9bb2d9"></path><path d="M0 535L21.5 527.3C43 519.7 86 504.3 128.8 498.8C171.7 493.3 214.3 497.7 257.2 497.3C300 497 343 492 385.8 490.7C428.7 489.3 471.3 491.7 514.2 500.8C557 510 600 526 642.8 533.2C685.7 540.3 728.3 538.7 771.2 528.8C814 519 857 501 878.5 492L900 483L900 601L878.5 601C857 601 814 601 771.2 601C728.3 601 685.7 601 642.8 601C600 601 557 601 514.2 601C471.3 601 428.7 601 385.8 601C343 601 300 601 257.2 601C214.3 601 171.7 601 128.8 601C86 601 43 601 21.5 601L0 601Z" fill="#cdd8ec"></path><path d="M0 557L21.5 555.3C43 553.7 86 550.3 128.8 549.2C171.7 548 214.3 549 257.2 552.3C300 555.7 343 561.3 385.8 559.3C428.7 557.3 471.3 547.7 514.2 545.5C557 543.3 600 548.7 642.8 551.3C685.7 554 728.3 554 771.2 555C814 556 857 558 878.5 559L900 560L900 601L878.5 601C857 601 814 601 771.2 601C728.3 601 685.7 601 642.8 601C600 601 557 601 514.2 601C471.3 601 428.7 601 385.8 601C343 601 300 601 257.2 601C214.3 601 171.7 601 128.8 601C86 601 43 601 21.5 601L0 601Z" fill="#ffffff"></path></svg>